<?xml version="1.0" encoding="UTF-8"?>
<svg viewBox="0 0 470 98" xmlns="http://www.w3.org/2000/svg">
<path d="m150.8 19h-2.411v65h2.411v-65z" fill="#414141"/>
<path d="m188.41 29.822c4.219 0 8.197 1.6876 12.175 5.1833l3.737-3.3751c-4.822-4.3395-10.126-6.6298-15.912-6.6298-6.268 0-11.451 2.1697-15.791 6.5092-4.339 4.3395-6.388 9.4023-6.388 15.429 0 6.0271 2.169 11.09 6.388 15.429 4.34 4.3395 9.523 6.3887 15.791 6.3887 5.786 0 11.09-2.1698 15.912-6.5093l-3.737-3.3751c-3.978 3.4957-7.956 5.1833-12.175 5.1833-4.58 0-8.438-1.6876-11.813-4.9422s-4.942-7.353-4.942-12.175c0-4.8216 1.687-8.7995 4.942-12.175 3.255-3.2546 7.233-4.9422 11.813-4.9422z" fill="#414141"/>
<path d="m214.8 26h-5.424v42.672h5.424v-42.672z" fill="#414141"/>
<path d="m249.76 53.947c0-4.3395-1.326-7.8352-3.857-10.487-3.014-3.0135-6.63-4.46-10.969-4.46-4.34 0-7.956 1.4465-10.849 4.46-3.014 3.0136-4.46 6.5093-4.46 10.608s1.446 7.594 4.46 10.608c3.014 3.0135 6.63 4.46 10.849 4.46 4.339 0 7.955-1.567 10.969-4.5805 0.964-0.9644 1.808-2.0493 2.652-3.3752l-5.063-1.8081c-0.844 0.9643-1.326 1.567-1.567 1.9286-2.049 2.0492-4.339 3.0136-6.991 3.0136s-4.942-0.9644-6.992-2.893c-2.049-1.9287-2.893-4.3395-2.893-7.2325v-0.1205h24.711v-0.1206zm-14.826-10.246c4.58 0 7.594 1.8081 8.799 5.5449h-17.719c1.326-3.7368 4.219-5.5449 8.92-5.5449z" fill="#414141"/>
<path d="m267.84 43.581c2.652 0 4.943 0.9643 6.871 2.8929 0.241 0.2411 0.724 0.8438 1.447 1.8082l5.063-1.9287c-0.965-1.3259-1.809-2.4108-2.532-3.0135-2.893-2.893-6.509-4.3395-10.849-4.3395-4.339 0-7.955 1.4465-10.848 4.46-3.014 3.0135-4.46 6.5093-4.46 10.608s1.446 7.594 4.46 10.608c3.013 3.0135 6.629 4.46 10.848 4.46 4.34 0 7.956-1.5671 10.97-4.5806 0.602-0.6027 1.446-1.567 2.411-3.0135l-5.063-1.9286c-0.723 0.8437-1.206 1.4464-1.326 1.567-2.049 2.0492-4.34 3.0135-6.992 3.0135-2.651 0-4.942-0.9643-6.87-3.0135-1.929-1.9287-2.893-4.3395-2.893-7.2325s0.964-5.3038 2.893-7.353c1.928-2.0492 4.219-3.0135 6.87-3.0135z" fill="#414141"/>
<path d="m291.59 42h-5.304v27.122h5.304v-27.122z" fill="#414141"/>
<path d="m288.94 32.426c-1.084 0-2.049 0.3616-2.772 1.0848-0.723 0.7233-1.085 1.4465-1.085 2.4109 0 0.9643 0.362 1.6875 1.085 2.4108 0.723 0.7232 1.688 1.0849 2.772 1.0849 1.085 0 2.05-0.3617 2.773-1.0849 0.723-0.7233 1.085-1.567 1.085-2.4108s-0.362-1.6876-1.085-2.4109c-0.723-0.7232-1.688-1.0848-2.773-1.0848z" fill="#414141"/>
<path d="m312.56 39c-4.34 0-7.956 1.4465-10.849 4.46-3.014 3.0136-4.46 6.5093-4.46 10.608s1.446 7.594 4.46 10.608c3.013 3.0135 6.63 4.46 10.849 4.46 4.339 0 7.955-1.4465 10.969-4.46 2.893-3.0136 4.46-6.5092 4.46-10.608s-1.447-7.5941-4.46-10.608c-3.014-3.0135-6.63-4.46-10.969-4.46zm6.991 22.3c-1.929 1.9287-4.219 2.893-6.871 2.893s-4.942-0.9643-6.991-2.893c-2.049-1.9286-2.893-4.3395-2.893-7.2324 0-2.893 0.964-5.3039 2.893-7.3531 1.928-1.9286 4.219-3.0135 6.991-3.0135 2.652 0 4.942 0.9643 6.871 3.0135 1.929 1.9287 3.014 4.4601 3.014 7.3531-0.121 2.7724-1.085 5.3038-3.014 7.2324z" fill="#414141"/>
<path d="m344.27 42.755c-2.049-0.9643-3.737-2.0492-4.942-3.2546-1.206-1.3259-1.929-2.7724-1.929-4.5806 0-1.8081 0.603-3.3751 1.929-4.5805 1.326-1.326 2.772-1.9287 4.58-1.9287s3.375 0.6027 4.581 1.9287c0.723 0.7232 1.205 1.4465 1.567 2.2903l2.17-0.8438c-0.362-1.2054-1.085-2.1697-1.929-3.1341-1.808-1.6876-3.857-2.6519-6.268-2.6519-2.532 0-4.581 0.8438-6.268 2.6519-1.688 1.6876-2.652 3.8573-2.652 6.2681 0 2.5314 0.844 4.5806 2.652 6.2682 1.687 1.6876 4.098 3.1341 7.112 4.0984 2.531 1.0849 4.58 2.4108 6.388 4.0984 1.929 1.9287 3.014 4.3395 3.014 7.1119 0 2.7725-0.965 5.1833-3.014 7.112-1.928 1.9286-4.339 3.0135-7.112 3.0135-2.772 0-5.183-0.9643-7.112-3.0135-1.687-1.6876-2.651-3.6163-2.893-5.9066l-2.169 0.8438c0.361 2.5314 1.567 4.8217 3.495 6.7503 2.411 2.4109 5.304 3.7368 8.8 3.7368 3.375 0 6.389-1.2054 8.799-3.6162 2.411-2.4108 3.617-5.4244 3.617-8.7995 0-3.3752-1.206-6.3887-3.617-8.7995-2.531-2.2903-5.424-3.9779-8.799-5.0628z" fill="#414141"/>
<path d="m374.52 40c-3.978 0-7.353 1.4465-10.126 4.2189-2.772 2.7725-4.219 6.2682-4.219 10.246 0 3.9779 1.447 7.3531 4.219 10.126 2.773 2.7724 6.268 4.2189 10.126 4.2189 3.978 0 7.353-1.4465 10.246-4.2189 2.772-2.7724 4.219-6.1476 4.219-10.126 0-3.9778-1.447-7.353-4.219-10.246-2.773-2.7724-6.268-4.2189-10.246-4.2189zm8.438 22.903c-2.291 2.2903-5.184 3.4957-8.438 3.4957-3.255 0-6.027-1.2054-8.438-3.4957-2.291-2.2903-3.496-5.0627-3.496-8.4379 0-3.2546 1.205-6.1476 3.496-8.4378 2.29-2.2903 5.183-3.4957 8.438-3.4957 3.254 0 6.147 1.2054 8.438 3.4957 2.29 2.2902 3.495 5.1832 3.495 8.4378 0 3.2547-1.205 6.0271-3.495 8.4379z" fill="#414141"/>
<path d="m412.25 58.912c0 2.1697-0.844 4.0984-2.411 5.5449-1.567 1.567-3.496 2.2902-5.666 2.2902-2.29 0-4.339-0.7232-5.906-2.2902-1.567-1.5671-2.411-3.3752-2.411-5.5449v-15.912h-2.411v16.032c0 2.893 1.085 5.3038 2.893 7.2325 1.929 1.9286 4.46 2.893 7.715 2.893 3.013 0 5.545-0.9644 7.353-2.893 1.929-1.9287 2.893-4.3395 2.893-7.2325v-16.032h-2.411v15.912h0.362z" fill="#414141"/>
<path d="m436.36 44h-17.358v2.2903h13.38l-13.38 23.023h18.443v-2.4109h-14.345l13.26-22.903z" fill="#414141"/>
<path d="m467.58 46.027c-0.482-0.6027-0.964-1.2055-1.446-1.8082-2.773-2.7724-6.268-4.2189-10.246-4.2189s-7.353 1.4465-10.126 4.2189c-2.772 2.7725-4.219 6.2682-4.219 10.246 0 3.9779 1.447 7.3531 4.219 10.126 2.773 2.7724 6.269 4.2189 10.126 4.2189 3.978 0 7.353-1.4465 10.246-4.2189 0.482-0.6027 1.085-1.0849 1.446-1.8081v5.3038h2.411v-25.796h-2.411v3.7368zm0 10.849c-0.482 2.2903-1.567 4.3395-3.254 6.027-2.291 2.2903-5.184 3.4957-8.438 3.4957-3.255 0-6.148-1.2054-8.438-3.4957s-3.496-5.0627-3.496-8.4379c0-3.2546 1.206-6.1476 3.496-8.4378 2.29-2.2903 5.183-3.4957 8.438-3.4957 3.254 0 6.147 1.2054 8.438 3.4957 1.687 1.6875 2.772 3.7367 3.254 6.027v4.8217z" fill="#414141"/>
<path d="m82.932 59.788c-0.3616 0.4822-0.8438 0.6027-1.326 0.6027h-23.988c-3.134 0-3.2546 5.6654 0 5.6654h24.832c1.2054 0 2.6519-0.4821 4.3395-1.567 2.0492-1.6875 3.0135-3.6162 3.0135-6.027v-5.4244c0-1.9286-0.6027-3.6162-1.8081-5.0627s-2.7724-2.2903-4.8216-2.7725c-0.3617-0.1205-0.9644-0.1205-1.5671-0.1205h-17.478c-0.8438 0-1.5671-0.2411-2.1698-0.8438-0.6027-0.4822-0.9643-1.2054-0.9643-2.0492v-2.5314c0-1.6876 0.8438-2.5313 2.4108-2.5313h23.988c3.1341 0 3.0135-5.6655 0-5.6655h-24.47c-2.4108 0-4.2189 0.7233-5.5449 2.0492-1.3259 1.4465-2.0492 3.3752-2.0492 5.786v4.3395c0 1.2054 0.3617 2.4108 0.9644 3.3751 1.4465 2.5314 3.9778 3.7368 7.7146 3.7368h16.876c2.2903 0 3.3751 1.0849 3.3751 3.2546v2.6519c-0.3616 1.6876-0.7232 2.652-1.3259 3.1341z" fill="#005095"/>
<path d="m91.25 19.648c-3.2546-4.8216-10.246-11.09-17.237-14.465-6.9914-3.4957-14.827-5.1833-23.626-5.1833-14.465 0-26.398 4.7011-36.042 13.983-9.5228 9.2817-14.344 20.854-14.344 34.475 0 13.018 3.9779 24.108 11.813 33.269 9.4023 10.849 22.3 16.273 38.573 16.273 8.5585 0 16.394-1.567 23.264-4.8216 6.9914-3.2547 14.103-10.005 17.358-13.742 3.2547-3.7368-4.2189-10.728-7.353-5.5449-10.849 11.692-19.769 15.309-32.787 15.309-11.934 0-21.697-3.8573-29.533-11.451s-11.692-17.117-11.692-28.448c0-7.4736 1.6876-14.344 5.1833-20.372s8.4379-10.849 14.706-14.344c6.3887-3.6162 13.26-5.3038 20.733-5.3038 6.7503 0 13.018 1.326 18.684 4.0984 5.6654 2.7724 11.572 8.4379 14.586 12.054 4.5805 5.1833 11.21-1.8081 7.7146-5.786z" fill="#005095"/>
<path d="m99.567 28.086c-1.6875 0-3.0135 1.326-3.0135 3.0136v36.162c0 1.6876 1.326 3.0136 3.0135 3.0136 1.6878 0 3.0138-1.326 3.0138-3.0136v-36.162c0-1.6876-1.326-3.0136-3.0138-3.0136z" fill="#005095"/>
<path d="m111.62 32.908c-1.688 0-3.014 1.326-3.014 3.0135v26.519c0 1.6876 1.326 3.0135 3.014 3.0135s3.013-1.3259 3.013-3.0135v-26.519c0-1.6875-1.325-3.0135-3.013-3.0135z" fill="#005095"/>
<path d="m123.68 37.728c-1.688 0-3.014 1.326-3.014 3.0135v18.081c0 1.6876 1.326 3.0136 3.014 3.0136 1.687 0 3.013-1.326 3.013-3.0136v-18.081c0-1.6875-1.326-3.0135-3.013-3.0135z" fill="#005095"/>
</svg>
