<svg width="450" height="359" viewBox="0 0 450 359" fill="none" xmlns="http://www.w3.org/2000/svg">
<path d="M294.464 218.655C293.18 220.419 291.468 220.86 289.756 220.86C289.756 220.86 211.86 220.86 204.584 220.86C193.456 220.86 193.028 241.579 204.584 241.579C211.432 241.579 292.752 241.579 292.752 241.579C297.032 241.579 302.168 239.816 308.16 235.848C315.436 229.676 318.86 222.623 318.86 213.806V193.969C318.86 186.915 316.72 180.743 312.44 175.453C308.16 170.163 302.596 167.078 295.32 165.314C294.036 164.873 291.896 164.873 289.756 164.873H227.696C224.7 164.873 222.132 163.992 219.992 161.787C217.852 160.024 216.568 157.379 216.568 154.293V145.036C216.568 138.864 219.564 135.778 225.128 135.778C225.128 135.778 299.172 135.778 310.3 135.778C321.428 135.778 321 115.059 310.3 115.059C299.6 115.059 223.416 115.059 223.416 115.059C214.856 115.059 208.436 117.704 203.728 122.553C199.02 127.843 196.452 134.897 196.452 143.713V159.583C196.452 163.992 197.736 168.4 199.876 171.927C205.012 181.184 214 185.593 227.268 185.593H287.188C295.32 185.593 299.172 189.56 299.172 197.495V207.194C297.888 213.365 296.604 216.892 294.464 218.655Z" fill="#005095"/>
<path d="M323.996 71.8563C312.44 54.2228 287.616 31.2993 262.792 18.9559C237.968 6.17166 210.148 0 178.904 0C127.544 0 85.172 17.1926 50.932 51.1371C17.12 85.0815 0 127.402 0 177.216C0 224.826 14.124 265.383 41.944 298.887C75.328 338.562 121.124 358.4 178.904 358.4C209.292 358.4 237.112 352.669 261.508 340.767C286.332 328.864 311.584 304.177 323.14 290.511C334.696 276.845 308.16 251.277 297.032 270.233C258.512 312.994 226.84 326.219 180.616 326.219C138.244 326.219 103.576 312.112 75.756 284.34C47.936 256.567 34.24 221.741 34.24 180.302C34.24 152.97 40.232 127.843 52.644 105.801C65.056 83.7589 82.604 66.1255 104.86 53.3412C127.544 40.1161 151.94 33.9443 178.476 33.9443C202.444 33.9443 224.7 38.7936 244.816 48.9329C264.932 59.0721 285.904 79.7914 296.604 93.0165C312.868 111.972 336.408 86.4039 323.996 71.8563Z" fill="#005095"/>
<path d="M353.528 102.716C347.536 102.716 342.828 107.565 342.828 113.737V245.988C342.828 252.16 347.536 257.009 353.528 257.009C359.52 257.009 364.228 252.16 364.228 245.988V113.737C364.228 107.565 359.52 102.716 353.528 102.716Z" fill="#005095"/>
<path d="M396.328 120.348C390.336 120.348 385.628 125.197 385.628 131.369V228.353C385.628 234.525 390.336 239.374 396.328 239.374C402.32 239.374 407.028 234.525 407.028 228.353V131.369C407.028 125.197 402.32 120.348 396.328 120.348Z" fill="#005095"/>
<path d="M439.128 137.98C433.136 137.98 428.429 142.83 428.429 149.001V215.127C428.429 221.298 433.136 226.148 439.128 226.148C445.12 226.148 449.829 221.298 449.829 215.127V149.001C449.829 142.83 445.12 137.98 439.128 137.98Z" fill="#005095"/>
</svg>
