<svg viewBox="0 0 470 98" xmlns="http://www.w3.org/2000/svg"><path d="M150.8 19h-2.411v65h2.411V19zM188.41 29.822c4.219 0 8.197 1.688 12.175 5.183l3.737-3.375C199.5 27.29 194.196 25 188.41 25c-6.268 0-11.451 2.17-15.791 6.51-4.339 4.34-6.388 9.402-6.388 15.429 0 6.027 2.169 11.09 6.388 15.429 4.34 4.34 9.523 6.388 15.791 6.388 5.786 0 11.09-2.17 15.912-6.509l-3.737-3.375c-3.978 3.496-7.956 5.183-12.175 5.183-4.58 0-8.438-1.687-11.813-4.942s-4.942-7.353-4.942-12.175c0-4.822 1.687-8.8 4.942-12.175 3.255-3.255 7.233-4.942 11.813-4.942zM214.8 26h-5.424v42.672h5.424V26zM249.76 53.947c0-4.34-1.326-7.835-3.857-10.487-3.014-3.014-6.63-4.46-10.969-4.46-4.34 0-7.956 1.446-10.849 4.46-3.014 3.014-4.46 6.51-4.46 10.608s1.446 7.594 4.46 10.608c3.014 3.014 6.63 4.46 10.849 4.46 4.339 0 7.955-1.567 10.969-4.58.964-.965 1.808-2.05 2.652-3.376l-5.063-1.808c-.844.964-1.326 1.567-1.567 1.929-2.049 2.049-4.339 3.013-6.991 3.013s-4.942-.964-6.992-2.893c-2.049-1.928-2.893-4.34-2.893-7.232v-.12h24.711v-.121zm-14.826-10.246c4.58 0 7.594 1.808 8.799 5.545h-17.719c1.326-3.737 4.219-5.545 8.92-5.545zM267.84 43.581c2.652 0 4.943.964 6.871 2.893.241.241.724.844 1.447 1.808l5.063-1.929c-.965-1.326-1.809-2.41-2.532-3.013-2.893-2.893-6.509-4.34-10.849-4.34-4.339 0-7.955 1.447-10.848 4.46-3.014 3.014-4.46 6.51-4.46 10.608s1.446 7.594 4.46 10.608c3.013 3.014 6.629 4.46 10.848 4.46 4.34 0 7.956-1.567 10.97-4.58.602-.603 1.446-1.567 2.411-3.014l-5.063-1.928c-.723.843-1.206 1.446-1.326 1.567-2.049 2.049-4.34 3.013-6.992 3.013-2.651 0-4.942-.964-6.87-3.013-1.929-1.929-2.893-4.34-2.893-7.233s.964-5.304 2.893-7.353c1.928-2.049 4.219-3.013 6.87-3.013zM291.59 42h-5.304v27.122h5.304V42zM288.94 32.426c-1.084 0-2.049.362-2.772 1.085-.723.723-1.085 1.446-1.085 2.41 0 .965.362 1.688 1.085 2.412.723.723 1.688 1.084 2.772 1.084 1.085 0 2.05-.361 2.773-1.085.723-.723 1.085-1.566 1.085-2.41s-.362-1.688-1.085-2.411c-.723-.723-1.688-1.085-2.773-1.085zM312.56 39c-4.34 0-7.956 1.446-10.849 4.46-3.014 3.014-4.46 6.51-4.46 10.608s1.446 7.594 4.46 10.608c3.013 3.014 6.63 4.46 10.849 4.46 4.339 0 7.955-1.446 10.969-4.46 2.893-3.014 4.46-6.51 4.46-10.608s-1.447-7.594-4.46-10.608c-3.014-3.014-6.63-4.46-10.969-4.46zm6.991 22.3c-1.929 1.929-4.219 2.893-6.871 2.893s-4.942-.964-6.991-2.893c-2.049-1.929-2.893-4.34-2.893-7.232 0-2.893.964-5.304 2.893-7.353 1.928-1.93 4.219-3.014 6.991-3.014 2.652 0 4.942.964 6.871 3.014 1.929 1.928 3.014 4.46 3.014 7.353-.121 2.772-1.085 5.303-3.014 7.232zM344.27 42.755c-2.049-.964-3.737-2.05-4.942-3.255-1.206-1.326-1.929-2.772-1.929-4.58 0-1.808.603-3.375 1.929-4.58 1.326-1.327 2.772-1.93 4.58-1.93s3.375.603 4.581 1.93a7.076 7.076 0 0 1 1.567 2.29l2.17-.844c-.362-1.206-1.085-2.17-1.929-3.134-1.808-1.688-3.857-2.652-6.268-2.652-2.532 0-4.581.844-6.268 2.652-1.688 1.687-2.652 3.857-2.652 6.268 0 2.531.844 4.58 2.652 6.268 1.687 1.688 4.098 3.134 7.112 4.098 2.531 1.085 4.58 2.411 6.388 4.099 1.929 1.929 3.014 4.34 3.014 7.112 0 2.772-.965 5.183-3.014 7.112-1.928 1.928-4.339 3.013-7.112 3.013-2.772 0-5.183-.964-7.112-3.013-1.687-1.688-2.651-3.617-2.893-5.907l-2.169.844c.361 2.531 1.567 4.822 3.495 6.75 2.411 2.411 5.304 3.737 8.8 3.737 3.375 0 6.389-1.205 8.799-3.616 2.411-2.411 3.617-5.425 3.617-8.8 0-3.375-1.206-6.388-3.617-8.8-2.531-2.29-5.424-3.977-8.799-5.062zM374.52 40c-3.978 0-7.353 1.446-10.126 4.219-2.772 2.772-4.219 6.268-4.219 10.246 0 3.978 1.447 7.353 4.219 10.126 2.773 2.772 6.268 4.219 10.126 4.219 3.978 0 7.353-1.447 10.246-4.22 2.772-2.771 4.219-6.147 4.219-10.125 0-3.978-1.447-7.353-4.219-10.246C381.993 41.447 378.498 40 374.52 40zm8.438 22.903c-2.291 2.29-5.184 3.496-8.438 3.496-3.255 0-6.027-1.206-8.438-3.496-2.291-2.29-3.496-5.063-3.496-8.438 0-3.254 1.205-6.147 3.496-8.438 2.29-2.29 5.183-3.495 8.438-3.495 3.254 0 6.147 1.205 8.438 3.495 2.29 2.29 3.495 5.184 3.495 8.438 0 3.255-1.205 6.027-3.495 8.438zM412.25 58.912c0 2.17-.844 4.098-2.411 5.545-1.567 1.567-3.496 2.29-5.666 2.29-2.29 0-4.339-.723-5.906-2.29-1.567-1.567-2.411-3.375-2.411-5.545V43h-2.411v16.032c0 2.893 1.085 5.304 2.893 7.233 1.929 1.928 4.46 2.893 7.715 2.893 3.013 0 5.545-.965 7.353-2.893 1.929-1.93 2.893-4.34 2.893-7.233V43h-2.411v15.912h.362zM436.36 44h-17.358v2.29h13.38l-13.38 23.023h18.443v-2.41H423.1l13.26-22.904zM467.58 46.027l-1.446-1.808c-2.773-2.773-6.268-4.22-10.246-4.22s-7.353 1.447-10.126 4.22c-2.772 2.772-4.219 6.268-4.219 10.246 0 3.978 1.447 7.353 4.219 10.126 2.773 2.772 6.269 4.219 10.126 4.219 3.978 0 7.353-1.447 10.246-4.22.482-.602 1.085-1.084 1.446-1.807v5.303h2.411V42.291h-2.411v3.736zm0 10.849a11.864 11.864 0 0 1-3.254 6.027c-2.291 2.29-5.184 3.496-8.438 3.496-3.255 0-6.148-1.206-8.438-3.496s-3.496-5.063-3.496-8.438c0-3.254 1.206-6.147 3.496-8.438 2.29-2.29 5.183-3.495 8.438-3.495 3.254 0 6.147 1.205 8.438 3.495a11.864 11.864 0 0 1 3.254 6.027v4.822z" fill="#414141"/><path d="M82.932 59.788c-.362.482-.844.603-1.326.603H57.618c-3.134 0-3.255 5.665 0 5.665H82.45c1.205 0 2.652-.482 4.34-1.567 2.049-1.687 3.013-3.616 3.013-6.027v-5.424c0-1.929-.603-3.616-1.808-5.063s-2.772-2.29-4.822-2.772c-.361-.121-.964-.121-1.567-.121H64.128c-.844 0-1.567-.241-2.17-.844-.602-.482-.964-1.205-.964-2.049v-2.531c0-1.688.844-2.532 2.41-2.532h23.989c3.134 0 3.013-5.665 0-5.665h-24.47c-2.41 0-4.219.723-5.545 2.049-1.326 1.447-2.05 3.375-2.05 5.786v4.34c0 1.205.363 2.41.965 3.375 1.447 2.531 3.978 3.736 7.715 3.736h16.876c2.29 0 3.375 1.085 3.375 3.255v2.652c-.362 1.688-.723 2.652-1.326 3.134z" fill="#005095"/><path d="M91.25 19.648c-3.255-4.822-10.246-11.09-17.237-14.465C67.022 1.687 59.186 0 50.387 0 35.922 0 23.989 4.7 14.345 13.983 4.822 23.264.001 34.837.001 48.458c0 13.018 3.978 24.108 11.813 33.269C21.216 92.576 34.114 98 50.387 98c8.559 0 16.394-1.567 23.264-4.822 6.991-3.255 14.103-10.005 17.358-13.742 3.255-3.737-4.219-10.728-7.353-5.545-10.849 11.692-19.769 15.31-32.787 15.31-11.934 0-21.697-3.858-29.533-11.452S9.644 60.632 9.644 49.301c0-7.473 1.688-14.344 5.183-20.372s8.438-10.849 14.706-14.344c6.389-3.616 13.26-5.304 20.733-5.304 6.75 0 13.018 1.326 18.684 4.099 5.666 2.772 11.572 8.438 14.586 12.054 4.58 5.183 11.21-1.808 7.715-5.786zM99.567 28.086a2.984 2.984 0 0 0-3.014 3.014v36.162a2.984 2.984 0 0 0 3.014 3.013 2.984 2.984 0 0 0 3.014-3.013V31.1a2.984 2.984 0 0 0-3.014-3.014zM111.62 32.908a2.984 2.984 0 0 0-3.014 3.014V62.44c0 1.687 1.326 3.013 3.014 3.013s3.013-1.326 3.013-3.014V35.921a2.984 2.984 0 0 0-3.013-3.013zM123.68 37.728a2.984 2.984 0 0 0-3.014 3.014v18.08a2.984 2.984 0 0 0 3.014 3.014 2.984 2.984 0 0 0 3.013-3.013V40.742a2.984 2.984 0 0 0-3.013-3.014z" fill="#005095"/></svg>