<svg width="470" height="98" viewBox="0 0 470 98" fill="none" xmlns="http://www.w3.org/2000/svg">
<path d="M150.797 19H148.386V84H150.797V19Z" fill="white"/>
<path d="M188.406 29.8216C192.625 29.8216 196.603 31.5092 200.581 35.0049L204.318 31.6298C199.496 27.2903 194.192 25 188.406 25C182.138 25 176.955 27.1697 172.615 31.5092C168.276 35.8487 166.227 40.9115 166.227 46.9385C166.227 52.9656 168.396 58.0283 172.615 62.3678C176.955 66.7073 182.138 68.7565 188.406 68.7565C194.192 68.7565 199.496 66.5867 204.318 62.2472L200.581 58.8721C196.603 62.3678 192.625 64.0554 188.406 64.0554C183.826 64.0554 179.968 62.3678 176.593 59.1132C173.218 55.8586 171.651 51.7602 171.651 46.9385C171.651 42.1169 173.338 38.139 176.593 34.7638C179.848 31.5092 183.826 29.8216 188.406 29.8216Z" fill="white"/>
<path d="M214.804 26H209.38V68.6716H214.804V26Z" fill="white"/>
<path d="M249.761 53.9471C249.761 49.6076 248.435 46.1119 245.904 43.46C242.89 40.4465 239.274 39 234.935 39C230.595 39 226.979 40.4465 224.086 43.46C221.072 46.4736 219.626 49.9693 219.626 54.0677C219.626 58.1661 221.072 61.6617 224.086 64.6753C227.1 67.6888 230.716 69.1353 234.935 69.1353C239.274 69.1353 242.89 67.5683 245.904 64.5548C246.868 63.5904 247.712 62.5055 248.556 61.1796L243.493 59.3715C242.649 60.3358 242.167 60.9385 241.926 61.3001C239.877 63.3493 237.587 64.3137 234.935 64.3137C232.283 64.3137 229.993 63.3493 227.943 61.4207C225.894 59.492 225.05 57.0812 225.05 54.1882V54.0677H249.761V53.9471ZM234.935 43.7011C239.515 43.7011 242.529 45.5092 243.734 49.246H226.015C227.341 45.5092 230.234 43.7011 234.935 43.7011Z" fill="white"/>
<path d="M267.842 43.5806C270.494 43.5806 272.785 44.5449 274.713 46.4735C274.954 46.7146 275.437 47.3173 276.16 48.2817L281.223 46.353C280.258 45.0271 279.414 43.9422 278.691 43.3395C275.798 40.4465 272.182 39 267.842 39C263.503 39 259.887 40.4465 256.994 43.46C253.98 46.4735 252.534 49.9693 252.534 54.0677C252.534 58.1661 253.98 61.6617 256.994 64.6753C260.007 67.6888 263.623 69.1353 267.842 69.1353C272.182 69.1353 275.798 67.5682 278.812 64.5547C279.414 63.952 280.258 62.9877 281.223 61.5412L276.16 59.6126C275.437 60.4563 274.954 61.059 274.834 61.1796C272.785 63.2288 270.494 64.1931 267.842 64.1931C265.191 64.1931 262.9 63.2288 260.972 61.1796C259.043 59.2509 258.079 56.8401 258.079 53.9471C258.079 51.0541 259.043 48.6433 260.972 46.5941C262.9 44.5449 265.191 43.5806 267.842 43.5806Z" fill="white"/>
<path d="M291.589 42H286.285V69.1218H291.589V42Z" fill="white"/>
<path d="M288.937 32.4258C287.853 32.4258 286.888 32.7874 286.165 33.5106C285.442 34.2339 285.08 34.9571 285.08 35.9215C285.08 36.8858 285.442 37.609 286.165 38.3323C286.888 39.0555 287.853 39.4172 288.937 39.4172C290.022 39.4172 290.987 39.0555 291.71 38.3323C292.433 37.609 292.795 36.7653 292.795 35.9215C292.795 35.0777 292.433 34.2339 291.71 33.5106C290.987 32.7874 290.022 32.4258 288.937 32.4258Z" fill="white"/>
<path d="M312.564 39C308.224 39 304.608 40.4465 301.715 43.46C298.701 46.4736 297.255 49.9693 297.255 54.0677C297.255 58.1661 298.701 61.6617 301.715 64.6753C304.728 67.6888 308.345 69.1353 312.564 69.1353C316.903 69.1353 320.519 67.6888 323.533 64.6753C326.426 61.6617 327.993 58.1661 327.993 54.0677C327.993 49.9693 326.546 46.4736 323.533 43.46C320.519 40.4465 316.903 39 312.564 39ZM319.555 61.3001C317.626 63.2288 315.336 64.1931 312.684 64.1931C310.032 64.1931 307.742 63.2288 305.693 61.3001C303.644 59.3715 302.8 56.9606 302.8 54.0677C302.8 51.1747 303.764 48.7638 305.693 46.7146C307.621 44.786 309.912 43.7011 312.684 43.7011C315.336 43.7011 317.626 44.6654 319.555 46.7146C321.484 48.6433 322.569 51.1747 322.569 54.0677C322.448 56.8401 321.484 59.3715 319.555 61.3001Z" fill="white"/>
<path d="M344.266 42.7552C342.217 41.7909 340.529 40.706 339.324 39.5006C338.118 38.1747 337.395 36.7282 337.395 34.92C337.395 33.1119 337.998 31.5449 339.324 30.3395C340.65 29.0135 342.096 28.4108 343.904 28.4108C345.712 28.4108 347.279 29.0135 348.485 30.3395C349.208 31.0627 349.69 31.786 350.052 32.6298L352.222 31.786C351.86 30.5806 351.137 29.6163 350.293 28.6519C348.485 26.9643 346.436 26 344.025 26C341.493 26 339.444 26.8438 337.757 28.6519C336.069 30.3395 335.105 32.5092 335.105 34.92C335.105 37.4514 335.949 39.5006 337.757 41.1882C339.444 42.8758 341.855 44.3223 344.869 45.2866C347.4 46.3715 349.449 47.6974 351.257 49.385C353.186 51.3137 354.271 53.7245 354.271 56.4969C354.271 59.2694 353.306 61.6802 351.257 63.6089C349.329 65.5375 346.918 66.6224 344.145 66.6224C341.373 66.6224 338.962 65.6581 337.033 63.6089C335.346 61.9213 334.382 59.9926 334.14 57.7023L331.971 58.5461C332.332 61.0775 333.538 63.3678 335.466 65.2964C337.877 67.7073 340.77 69.0332 344.266 69.0332C347.641 69.0332 350.655 67.8278 353.065 65.417C355.476 63.0062 356.682 59.9926 356.682 56.6175C356.682 53.2423 355.476 50.2288 353.065 47.818C350.534 45.5277 347.641 43.8401 344.266 42.7552Z" fill="white"/>
<path d="M374.522 40C370.544 40 367.169 41.4465 364.396 44.2189C361.624 46.9914 360.177 50.4871 360.177 54.4649C360.177 58.4428 361.624 61.818 364.396 64.5904C367.169 67.3628 370.664 68.8093 374.522 68.8093C378.5 68.8093 381.875 67.3628 384.768 64.5904C387.54 61.818 388.987 58.4428 388.987 54.4649C388.987 50.4871 387.54 47.1119 384.768 44.2189C381.995 41.4465 378.5 40 374.522 40ZM382.96 62.9028C380.669 65.1931 377.776 66.3985 374.522 66.3985C371.267 66.3985 368.495 65.1931 366.084 62.9028C363.793 60.6125 362.588 57.8401 362.588 54.4649C362.588 51.2103 363.793 48.3173 366.084 46.0271C368.374 43.7368 371.267 42.5314 374.522 42.5314C377.776 42.5314 380.669 43.7368 382.96 46.0271C385.25 48.3173 386.455 51.2103 386.455 54.4649C386.455 57.7196 385.25 60.492 382.96 62.9028Z" fill="white"/>
<path d="M412.251 58.9115C412.251 61.0812 411.407 63.0099 409.84 64.4564C408.273 66.0234 406.344 66.7466 404.174 66.7466C401.884 66.7466 399.835 66.0234 398.268 64.4564C396.701 62.8893 395.857 61.0812 395.857 58.9115V43H393.446V59.032C393.446 61.925 394.531 64.3358 396.339 66.2645C398.268 68.1931 400.799 69.1575 404.054 69.1575C407.067 69.1575 409.599 68.1931 411.407 66.2645C413.336 64.3358 414.3 61.925 414.3 59.032V43H411.889V58.9115H412.251Z" fill="white"/>
<path d="M436.359 44H419.001V46.2903H432.381L419.001 69.3137H437.444V66.9028H423.099L436.359 44Z" fill="white"/>
<path d="M467.579 46.0271C467.097 45.4244 466.615 44.8217 466.133 44.2189C463.36 41.4465 459.865 40 455.887 40C451.909 40 448.534 41.4465 445.761 44.2189C442.989 46.9914 441.542 50.4871 441.542 54.4649C441.542 58.4428 442.989 61.818 445.761 64.5904C448.534 67.3628 452.03 68.8093 455.887 68.8093C459.865 68.8093 463.24 67.3628 466.133 64.5904C466.615 63.9877 467.218 63.5055 467.579 62.7823V68.0861H469.99V42.2903H467.579V46.0271ZM467.579 56.8758C467.097 59.1661 466.012 61.2153 464.325 62.9028C462.034 65.1931 459.141 66.3985 455.887 66.3985C452.632 66.3985 449.739 65.1931 447.449 62.9028C445.159 60.6125 443.953 57.8401 443.953 54.4649C443.953 51.2103 445.159 48.3173 447.449 46.0271C449.739 43.7368 452.632 42.5314 455.887 42.5314C459.141 42.5314 462.034 43.7368 464.325 46.0271C466.012 47.7146 467.097 49.7638 467.579 52.0541V56.8758Z" fill="white"/>
<path d="M82.9323 59.7881C82.5707 60.2703 82.0885 60.3908 81.6063 60.3908C81.6063 60.3908 59.6678 60.3908 57.6186 60.3908C54.4846 60.3908 54.364 66.0562 57.6186 66.0562C59.5473 66.0562 82.4501 66.0562 82.4501 66.0562C83.6555 66.0562 85.102 65.5741 86.7896 64.4892C88.8388 62.8016 89.8031 60.873 89.8031 58.4622V53.0378C89.8031 51.1092 89.2004 49.4216 87.995 47.9751C86.7896 46.5286 85.2226 45.6848 83.1734 45.2026C82.8117 45.0821 82.209 45.0821 81.6063 45.0821H64.1279C63.2841 45.0821 62.5608 44.841 61.9581 44.2383C61.3554 43.7561 60.9938 43.0329 60.9938 42.1891V39.6577C60.9938 37.9701 61.8376 37.1264 63.4046 37.1264C63.4046 37.1264 84.2582 37.1264 87.3923 37.1264C90.5264 37.1264 90.4058 31.4609 87.3923 31.4609C84.3788 31.4609 62.9224 31.4609 62.9224 31.4609C60.5116 31.4609 58.7035 32.1842 57.3775 33.5101C56.0516 34.9566 55.3283 36.8853 55.3283 39.2961V43.6356C55.3283 44.841 55.69 46.0464 56.2927 47.0107C57.7392 49.5421 60.2705 50.7475 64.0073 50.7475H80.8831C83.1734 50.7475 84.2582 51.8324 84.2582 54.0021V56.654C83.8966 58.3416 83.535 59.306 82.9323 59.7881Z" fill="white"/>
<path d="M91.2497 19.6482C87.9951 14.8266 81.0037 8.55841 74.0123 5.18326C67.0209 1.68756 59.1857 0 50.3862 0C35.9213 0 23.9877 4.70112 14.3444 13.9828C4.82165 23.2645 0 34.8364 0 48.4576C0 61.476 3.97785 72.5658 11.813 81.7269C21.2153 92.5756 34.1132 98 50.3862 98C58.9447 98 66.7798 96.433 73.6507 93.1784C80.6421 89.9237 87.754 83.1734 91.0086 79.4367C94.2632 75.6999 86.7897 68.7085 83.6556 73.8918C72.8069 85.5843 63.8868 89.2005 50.8684 89.2005C38.9348 89.2005 29.171 85.3432 21.3358 77.7491C13.5006 70.155 9.6433 60.6322 9.6433 49.3014C9.6433 41.8278 11.3309 34.957 14.8266 28.9299C18.3223 22.9028 23.2645 18.0812 29.5326 14.5855C35.9213 10.9693 42.7921 9.28165 50.2657 9.28165C57.016 9.28165 63.2841 10.6076 68.9496 13.3801C74.615 16.1525 80.5215 21.818 83.5351 25.4342C88.1156 30.6175 94.7454 23.6261 91.2497 19.6482Z" fill="white"/>
<path d="M99.5672 28.0859C97.8797 28.0859 96.5537 29.4119 96.5537 31.0995V67.2618C96.5537 68.9494 97.8797 70.2754 99.5672 70.2754C101.255 70.2754 102.581 68.9494 102.581 67.2618V31.0995C102.581 29.4119 101.255 28.0859 99.5672 28.0859Z" fill="white"/>
<path d="M111.621 32.9082C109.933 32.9082 108.607 34.2342 108.607 35.9217V62.4408C108.607 64.1284 109.933 65.4543 111.621 65.4543C113.309 65.4543 114.634 64.1284 114.634 62.4408V35.9217C114.634 34.2342 113.309 32.9082 111.621 32.9082Z" fill="white"/>
<path d="M123.676 37.7285C121.988 37.7285 120.662 39.0545 120.662 40.742V58.8232C120.662 60.5108 121.988 61.8368 123.676 61.8368C125.363 61.8368 126.689 60.5108 126.689 58.8232V40.742C126.689 39.0545 125.363 37.7285 123.676 37.7285Z" fill="white"/>
</svg>
